<svg xmlns="http://www.w3.org/2000/svg" width="1200" height="630" viewBox="0 0 1200 630">
  <defs>
    <linearGradient id="bg" x1="0" y1="0" x2="1" y2="1">
      <stop offset="0" stop-color="#0A2B1E"/>
      <stop offset="1" stop-color="#04120D"/>
    </linearGradient>
    <linearGradient id="gold" x1="0" y1="0" x2="1" y2="1">
      <stop offset="0" stop-color="#D4AF6A"/>
      <stop offset="1" stop-color="#2AA877"/>
    </linearGradient>
  </defs>
  <rect width="1200" height="630" fill="url(#bg)"/>
  <g opacity="0.16">
    <g fill="none" stroke="#2AA877" stroke-width="1.5">
      <rect x="880" y="180" width="70" height="70"/><rect x="950" y="180" width="70" height="70"/>
      <rect x="880" y="250" width="70" height="70"/><rect x="950" y="250" width="70" height="70"/>
      <rect x="880" y="320" width="70" height="70"/><rect x="950" y="320" width="70" height="70"/>
      <rect x="880" y="390" width="70" height="70"/>
    </g>
  </g>
  <rect x="120" y="120" width="24" height="24" rx="4" fill="#1B6E4C"/>
  <path d="M131 129c-1 0-1.9.8-1.9 1.8 0 .7.4 1.3.9 1.5-1.2.4-2 1.4-2.2 2.6h6.4c-.2-1.2-1-2.2-2.2-2.6.5-.2.9-.8.9-1.5 0-1-.9-1.8-1.9-1.8z" fill="#D4AF6A"/>
  <rect x="127" y="136" width="10" height="1.8" fill="#D4AF6A"/>
  <path d="M127 145l1-4.6h6l1 4.6z" fill="#D4AF6A"/>
  <text x="155" y="146" font-family="Georgia,serif" font-size="34" fill="#F2EBD8" font-weight="bold">Belize Chess Federation</text>
  <text x="155" y="168" font-family="Arial,sans-serif" font-size="15" fill="#D4AF6A" letter-spacing="3">NATIONAL NEWS · RATINGS · TOURNAMENTS · SINCE 1987</text>
  <text x="120" y="260" font-family="Georgia,serif" font-size="52" fill="#F2EBD8">Sixteen squares, six districts,</text>
  <text x="120" y="326" font-family="Georgia,serif" font-size="52" fill="url(#gold)">one federation.</text>
  <text x="120" y="386" font-family="Arial,sans-serif" font-size="19" fill="#D9CFB4">Live national ratings · full tournament calendar · district clubs</text>
  <text x="120" y="420" font-family="Arial,sans-serif" font-size="19" fill="#D9CFB4">FIDE member since 2022 · belizechess.com</text>
</svg>
